<svg xmlns="http://www.w3.org/2000/svg" xmlns:xlink="http://www.w3.org/1999/xlink" version="1.1" x="0px" y="0px" viewBox="0 0 100 125" style="enable-background:new 0 0 100 100;" xml:space="preserve">
<path d="M84,24.8c-1-1.7-2.5-2.9-4.3-3.4L64.4,17c-0.1-3.9-3.3-7-7.2-7H36.7c-0.2,0-0.4,0-0.6,0.1c-0.2,0.1-0.4,0.2-0.5,0.3  L15.5,30.5h0c-0.1,0.1-0.2,0.3-0.3,0.4c0,0,0,0,0,0c-0.1,0.2-0.1,0.4-0.1,0.6v42.3c0,4,3.2,7.2,7.2,7.2h7.9L60,89.7  c0.7,0.2,1.4,0.3,2,0.3c1.2,0,2.4-0.3,3.5-0.9c1.7-0.9,2.9-2.5,3.4-4.3l15.7-54.5C85.2,28.5,85,26.5,84,24.8z M22.3,78.2  c-2.4,0-4.3-2-4.3-4.3V33h12.9c4,0,7.2-3.2,7.2-7.2V12.9h19.1c2.4,0,4.3,1.9,4.3,4.3v56.7c0,2.4-1.9,4.3-4.3,4.3H22.3z M81.8,29.5  l-14.4,50L66.1,84c-0.3,1.1-1.1,2-2,2.6c-1,0.6-2.2,0.7-3.3,0.4l-20.1-5.8h16.5c4,0,7.2-3.2,7.2-7.2V20l14.4,4.1  c1.1,0.3,2,1.1,2.6,2C82,27.3,82.2,28.4,81.8,29.5z"/>

</svg>