<svg xmlns="http://www.w3.org/2000/svg" width="30" height="34" fill="none" viewBox="0 0 30 34">
  <path fill="#D3691F" d="M30 19.656c0 4.403-3.596 7.969-8.036 7.969h-.535a2.132 2.132 0 0 1-2.143-2.125c0-1.175.957-2.125 2.143-2.125h.535c2.07 0 3.75-1.667 3.75-3.719v-.531H21.43c-2.364 0-4.286-1.906-4.286-4.25v-4.25c0-2.344 1.922-4.25 4.286-4.25h4.285c2.364 0 4.286 1.906 4.286 4.25V19.656Zm-17.143 0c0 4.403-3.596 7.969-8.036 7.969h-.535A2.132 2.132 0 0 1 2.143 25.5c0-1.175.957-2.125 2.143-2.125h.535c2.07 0 3.75-1.667 3.75-3.719v-.531H4.286C1.922 19.125 0 17.219 0 14.875v-4.25c0-2.344 1.922-4.25 4.286-4.25H8.57c2.364 0 4.286 1.906 4.286 4.25V19.656Z"/>
</svg>
