<svg width="30" height="34" viewBox="0 0 30 34" fill="none" xmlns="http://www.w3.org/2000/svg">
    <path 
        fill="#D3691F" 
        d="M0 14.3438C0 9.94102 3.59598 6.375 8.03571 6.375H8.57143C9.7567 6.375 10.7143 7.32461 10.7143 8.5C10.7143 9.67539 9.7567 10.625 8.57143 10.625H8.03571C5.96652 10.625 4.28571 12.2918 4.28571 14.3438V14.875H8.57143C10.9353 14.875 12.8571 16.7809 12.8571 19.125V23.375C12.8571 25.7191 10.9353 27.625 8.57143 27.625H4.28571C1.92188 27.625 0 25.7191 0 23.375V21.25V19.125V14.3438ZM17.1429 14.3438C17.1429 9.94102 20.7388 6.375 25.1786 6.375H25.7143C26.8996 6.375 27.8571 7.32461 27.8571 8.5C27.8571 9.67539 26.8996 10.625 25.7143 10.625H25.1786C23.1094 10.625 21.4286 12.2918 21.4286 14.3438V14.875H25.7143C28.0781 14.875 30 16.7809 30 19.125V23.375C30 25.7191 28.0781 27.625 25.7143 27.625H21.4286C19.0647 27.625 17.1429 25.7191 17.1429 23.375V21.25V19.125V14.3438Z" />
</svg>
